<svg preserveAspectRatio="none" width="100%" height="100%" overflow="visible" style="display: block;" viewBox="0 0 110 38" fill="none" xmlns="http://www.w3.org/2000/svg">
<g id="logo">
<path d="M0 6.56769L37.0299 8.70604L46.5013 23.0308L44.8867 28.2688L41.1183 31.9058L35.8449 31.9058L36.3811 24.7416L32.8319 30.5169L26.9094 32.5455L20.8814 30.835L27.1265 22.0695L21.6357 25.7029L13.7785 26.0245L8.39462 20.5712L18.0844 16.1883L9.14889 15.8667L1.93583 12.3395L0 6.56769Z" fill="var(--fill-0, white)"/>
<path d="M46.9309 31.8917L48.421 33.7296L50.6697 34.2421L51.8695 31.6866L51.8695 35.9527L53.2056 37.0767L55.2113 37.0767L56.7045 35.9527V31.6866L57.771 34.1395L59.8685 33.8605L61.4861 31.9693L57.294 25.5829L51.277 25.5829L46.9309 31.8917Z" fill="var(--fill-0, white)"/>
<path d="M109.071 6.56775L72.0419 8.70607L62.5704 23.0309L64.1821 28.2688L67.9505 31.9058L73.224 31.9058L72.6848 24.7416L76.2369 30.5169L82.1591 32.5455L88.188 30.835L81.9458 22.0695L87.4326 25.703L95.2923 26.0246L100.672 20.5712L90.9877 16.1883L99.9199 15.8667L107.134 12.3395L109.071 6.56775Z" fill="var(--fill-0, white)"/>
<path d="M38.5734 0L54.0737 14.4425L69.8436 1.54947e-05L62.1024 3.72525L46.3917 3.72524L38.5734 0Z" fill="var(--fill-0, white)"/>
<path d="M57.8836 15.9161C57.8836 15.9161 59.759 10.4027 63.9007 10.8691C63.9007 10.8691 65.776 16.5346 57.8836 15.9161Z" fill="var(--fill-0, white)"/>
<path d="M50.2609 15.9161C50.2609 15.9161 48.3855 10.4027 44.2438 10.8691C44.2438 10.8691 42.3685 16.5346 50.2609 15.9161Z" fill="var(--fill-0, white)"/>
<path d="M52.4887 17.1567C52.4887 17.1567 54.0737 18.1042 55.6469 17.1567L54.207 20.8822L52.4887 17.2594" fill="var(--fill-0, white)"/>
</g>
</svg>
