<svg preserveAspectRatio="none" width="100%" height="100%" overflow="visible" style="display: block;" viewBox="0 0 32 38" fill="none" xmlns="http://www.w3.org/2000/svg">
<g id="Frame">
<path d="M32 38H0V0H32V38Z" stroke="var(--stroke-0, #E5E7EB)"/>
<path id="Vector" d="M31.3286 20.6773C32.2214 19.7496 32.2214 18.243 31.3286 17.3152L19.9 5.44023C19.0071 4.5125 17.5571 4.5125 16.6643 5.44023C15.7714 6.36797 15.7714 7.87461 16.6643 8.80234L24.2 16.625H2.28571C1.02143 16.625 0 17.6863 0 19C0 20.3137 1.02143 21.375 2.28571 21.375H24.1929L16.6714 29.1977C15.7786 30.1254 15.7786 31.632 16.6714 32.5598C17.5643 33.4875 19.0143 33.4875 19.9071 32.5598L31.3357 20.6848L31.3286 20.6773Z" fill="var(--fill-0, white)"/>
</g>
</svg>
